<?xml version="1.0" encoding="utf-8"?>
<!-- Generator: Adobe Illustrator 24.0.2, SVG Export Plug-In . SVG Version: 6.00 Build 0)  -->
<svg version="1.1" id="Layer_1" xmlns="http://www.w3.org/2000/svg" xmlns:xlink="http://www.w3.org/1999/xlink" x="0px" y="0px"
	 viewBox="0 0 500 300" style="enable-background:new 0 0 500 300;" xml:space="preserve">
<style type="text/css">
	.st0{font-family:'HarlowSolid';}
	.st1{font-size:60.0148px;}
	.st2{fill:#00A19A;}
</style>
<text transform="matrix(1.0619 0 0 1 136.7144 154.4426)" class="st0 st1">WTF</text>
<g>
	<g>
		<path class="st2" d="M154.89,130.53c-2.62,1.85-6.2,1.5-8.65-0.52c-3.06-2.54-2.73-6.82-0.34-10.08
			c2.89-3.96,8.11-5.36,12.75-5.85c1.1-0.11,2.19-0.16,3.29-0.2c0.58-0.02,0.34,0.23,0.17-0.01c0.06,0.09,0.15,0.21,0.16,0.33
			c0.06,0.48,0.17,0.93,0.19,1.42c0.18,3.13,0.29,6.27,0.42,9.4c0.3,7.1,0.54,14.19,0.74,21.29c0.07,2.44,3.39,3.46,4.66,1.26
			c6.08-10.54,11.93-21.2,17.55-31.99c-1.14,0.3-2.28,0.6-3.42,0.9c3.05,1.88,2.8,6.82,2.94,9.93c0.26,5.58,0.53,11.15,0.79,16.73
			c0.12,2.5,3.29,3.37,4.66,1.26c2.7-4.16,5.4-8.31,8.1-12.47c2.59-3.98,5.05-8.09,7.82-11.95c1.73-2.4,4.29-5.41,7.56-5.15
			c3.17,0.24,5.5,3.43,7.27,5.73c3.14,4.07,6.54,7.72,10.27,11.27c0.37-1.39,0.74-2.79,1.1-4.18c-6.42,1.99-13.46,4.28-17.75,9.8
			c-3.89,5.02-5.07,12.58-0.79,17.74c4.16,5.01,11.74,4.81,17.07,1.98c6.16-3.28,9.3-10.08,11.79-16.24
			c3.51-8.68,6.89-17.42,10.33-26.12c0.51-1.3-0.57-2.7-1.75-3.08c-4.03-1.3-8.24-1.06-12.34-0.32c0.44,1.61,0.89,3.21,1.33,4.82
			c7.79-1.8,15.97-1.89,23.79-0.18c7.99,1.75,15.19,5.44,22.22,9.5c4.29,2.48,8.52,5.07,12.68,7.76c0.42-1.55,0.84-3.11,1.26-4.66
			c-5.26-0.48-10.55-0.44-15.79,0.17c-4.96,0.57-10.17,1.36-14.83,3.23c-4.35,1.74-7.64,4.82-8.91,9.42
			c-1.13,4.11-0.81,8.76,0.1,12.88c0.5,2.25,1.5,4.5,3.32,5.98c1.93,1.58,4.43,2.22,6.9,2.21c4.58-0.02,8.88-2.25,12.14-5.36
			c3.49-3.34,5.66-7.74,7.4-12.17c1.9-4.86,3.49-9.85,5.19-14.78c1.01-2.91,2.02-5.83,3.02-8.74c0.49-1.42,0.98-2.83,1.47-4.25
			c0.27-0.79,0.54-1.57,0.82-2.36c0.03-0.09,0.32-0.77,0.28-0.81c-0.03-0.04-0.31,0.19-0.3,0.21c0.07,0.17,3.8,0.05,4.21,0.06
			c1.46,0.04,2.91,0.07,4.37,0.11c3.08,0.08,6.15,0.15,9.23,0.23c3.22,0.08,3.22-4.92,0-5c-5.02-0.12-10.04-0.25-15.05-0.37
			c-2.37-0.06-4.98-0.32-6.52,1.9c-0.63,0.91-0.92,2.02-1.28,3.06c-0.44,1.26-0.87,2.52-1.31,3.78c-1.66,4.8-3.32,9.6-4.98,14.41
			c-1.53,4.42-2.87,8.97-4.81,13.24c-1.65,3.65-3.84,7.26-7.21,9.56c-2.68,1.82-7.31,3.61-10.28,1.35c-1.34-1.02-1.7-2.96-1.97-4.52
			c-0.32-1.82-0.46-3.69-0.42-5.54c0.08-3.56,1.16-6.99,4.38-8.88c1.93-1.13,4.12-1.7,6.27-2.23c2.57-0.63,5.19-1.15,7.81-1.49
			c5.55-0.73,11.17-0.79,16.74-0.28c2.63,0.24,3.17-3.42,1.26-4.66c-7.37-4.78-14.94-9.5-22.93-13.2
			c-7.93-3.68-16.38-5.83-25.15-5.97c-4.86-0.07-9.74,0.48-14.47,1.57c-1.32,0.3-2.09,1.81-1.75,3.08c0.39,1.4,1.74,1.99,3.08,1.75
			c3.24-0.58,6.52-0.7,9.69,0.32c-0.58-1.03-1.16-2.05-1.75-3.08c-2.73,6.92-5.47,13.83-8.2,20.75c-2.14,5.42-4.04,11.53-8.11,15.87
			c-3.02,3.22-8.26,5.49-12.49,3.27c-4.36-2.29-3.83-8.03-1.65-11.69c3.25-5.46,10.27-7.44,15.94-9.2c1.75-0.54,2.51-2.84,1.1-4.18
			c-3.5-3.33-6.76-6.72-9.71-10.55c-2.47-3.21-5.34-6.75-9.51-7.67c-4.43-0.98-8.43,1.19-11.35,4.39
			c-3.26,3.58-5.68,7.98-8.31,12.03c-3.33,5.13-6.66,10.25-9.99,15.38c1.55,0.42,3.11,0.84,4.66,1.26
			c-0.29-6.22-0.56-12.43-0.89-18.65c-0.24-4.62-1.06-9.7-5.33-12.33c-1.11-0.68-2.81-0.28-3.42,0.9
			c-5.62,10.79-11.47,21.46-17.55,31.99c1.55,0.42,3.11,0.84,4.66,1.26c-0.21-7.59-0.48-15.19-0.8-22.78
			c-0.08-1.81-0.16-3.63-0.24-5.44c-0.08-1.7-0.01-3.56-0.49-5.22c-0.47-1.62-1.54-2.96-3.14-3.57c-1.56-0.6-3.25-0.41-4.88-0.25
			c-6.55,0.63-13.17,2.56-17.26,8.06c-3.45,4.63-3.98,11.21,0.06,15.64c3.79,4.16,10.84,5.44,15.54,2.11
			c1.1-0.78,1.62-2.18,0.9-3.42C157.67,130.34,156,129.75,154.89,130.53L154.89,130.53z"/>
	</g>
</g>
</svg>
